<?xml version="1.0" encoding="UTF-8" standalone="no"?>
<svg
   xmlns:dc="http://purl.org/dc/elements/1.1/"
   xmlns:cc="http://creativecommons.org/ns#"
   xmlns:rdf="http://www.w3.org/1999/02/22-rdf-syntax-ns#"
   xmlns:svg="http://www.w3.org/2000/svg"
   xmlns="http://www.w3.org/2000/svg"
   xmlns:sodipodi="http://sodipodi.sourceforge.net/DTD/sodipodi-0.dtd"
   xmlns:inkscape="http://www.inkscape.org/namespaces/inkscape"
   inkscape:version="1.0 (4035a4fb49, 2020-05-01)"
   sodipodi:docname="visa-icon-blue.svg"
   id="svg8"
   version="1.1"
   viewBox="0 0 200 200"
   height="200mm"
   width="200mm">
  <defs
     id="defs2" />
  <sodipodi:namedview
     inkscape:window-maximized="0"
     inkscape:window-y="0"
     inkscape:window-x="182"
     inkscape:window-height="1040"
     inkscape:window-width="1274"
     showgrid="false"
     inkscape:document-rotation="0"
     inkscape:current-layer="g843"
     inkscape:document-units="mm"
     inkscape:cy="560"
     inkscape:cx="396.95163"
     inkscape:zoom="0.35"
     inkscape:pageshadow="2"
     inkscape:pageopacity="0.0"
     borderopacity="1.0"
     bordercolor="#666666"
     pagecolor="#ffffff"
     id="base" />
  <metadata
     id="metadata5">
    <rdf:RDF>
      <cc:Work
         rdf:about="">
        <dc:format>image/svg+xml</dc:format>
        <dc:type
           rdf:resource="http://purl.org/dc/dcmitype/StillImage" />
        <dc:title></dc:title>
      </cc:Work>
    </rdf:RDF>
  </metadata>
  <g
     id="layer1"
     inkscape:groupmode="layer"
     inkscape:label="Layer 1">
    <g
       transform="matrix(0.01072532,0,0,-0.01072532,-25.551968,250.6001)"
       id="g843">
      <path
         id="path879"
         style="fill:none;stroke:#2c5aa0;stroke-width:275.602;stroke-linecap:round;stroke-linejoin:round;stroke-miterlimit:10;stroke-dasharray:none;stroke-opacity:1"
         d="M 17697.82,6185.6333 H 5815.439 c -1031.42,0 -1867.56,836.1 -1867.56,1867.6 V 19935.534 c 0,1031.5 836.14,1867.6 1867.56,1867.6 H 17697.82 c 1031.4,0 1867.5,-836.1 1867.5,-1867.6 V 8053.2333 c 0,-1031.5 -836.1,-1867.6 -1867.5,-1867.6 z" />
      <path
         id="path881"
         style="fill:none;stroke:#2c5aa0;stroke-width:275.602;stroke-linecap:round;stroke-linejoin:round;stroke-miterlimit:10;stroke-dasharray:none;stroke-opacity:1"
         d="m 15814.42,20516.934 h 1454.2 c 558.6,0 1010.6,-451.9 1010.6,-1010.5 v -1454.3" />
      <path
         id="path883"
         style="fill:none;stroke:#2c5aa0;stroke-width:275.602;stroke-linecap:round;stroke-linejoin:round;stroke-miterlimit:10;stroke-dasharray:none;stroke-opacity:1"
         d="m 5234.029,18052.134 v 1454.3 c 0,558.6 451.99,1010.5 1010.54,1010.5 h 1454.26" />
      <path
         id="path885"
         style="fill:none;stroke:#2c5aa0;stroke-width:275.602;stroke-linecap:round;stroke-linejoin:round;stroke-miterlimit:10;stroke-dasharray:none;stroke-opacity:1"
         d="M 3947.879,13994.434 H 19565.32" />
      <path
         id="path887"
         style="fill:#2c5aa0;fill-opacity:1;fill-rule:nonzero;stroke:#2c5aa0"
         d="m 8656.499,16638.334 -821.53,2517.1 h 350.99 l 392.11,-1239.9 c 108.34,-339.8 201.72,-646 268.92,-941 h 7.48 c 70.95,291.2 175.54,608.7 287.52,937.3 l 425.7301,1243.6 h 347.4007 l -900.0708,-2517.1 h -358.55" />
      <path
         id="path889"
         style="fill:#2c5aa0;fill-opacity:1;fill-rule:nonzero;stroke:#2c5aa0"
         d="m 10793.02,19155.434 v -2517.1 h -324.9 v 2517.1 h 324.9" />
      <path
         id="path891"
         style="fill:#2c5aa0;fill-opacity:1;fill-rule:nonzero;stroke:#2c5aa0"
         d="m 11596.22,17034.234 c 145.6,-89.6 358.4,-164.3 582.6,-164.3 332.3,0 526.5,175.5 526.5,429.5 0,235.2 -134.4,369.7 -474.3,500.3 -410.8,145.8 -664.8,358.6 -664.8,713.3 0,392.2 324.9,683.5 814.2,683.5 257.7,0 444.4,-59.7 556.4,-123.3 l -89.6,-265.1 c -82.2,44.8 -250.2,119.5 -478,119.5 -343.5,0 -474.3,-205.4 -474.3,-377.2 0,-235.3 153.1,-351.1 500.4,-485.5 425.8,-164.3 642.4,-369.7 642.4,-739.4 0,-388.4 -287.5,-724.5 -881.4,-724.5 -242.7,0 -507.9,71 -642.3,160.5 l 82.2,272.7" />
      <path
         id="path893"
         style="fill:#2c5aa0;fill-opacity:1;fill-rule:nonzero;stroke:#2c5aa0"
         d="m 14994.92,17684.034 -246.5,724.5 c -56,164.3 -93.4,313.7 -130.7,459.3 h -7.5 c -37.4,-149.3 -78.4,-302.4 -127,-455.5 l -246.5,-728.3 z m -825.4,-254 -261.3,-791.7 h -336.2 l 855.2,2517.1 h 392.1 l 858.9,-2517.1 h -347.2 l -268.9,791.7 h -892.6" />
      <path
         id="path895"
         style="fill:none;stroke:#2c5aa0;stroke-width:275.602;stroke-linecap:round;stroke-linejoin:round;stroke-miterlimit:10;stroke-dasharray:none;stroke-opacity:1"
         d="m 5885.479,11566.834 c 0,464.1 376.26,840.4 840.4,840.4 464.14,0 840.4,-376.3 840.4,-840.4 0,-464.1 -376.26,-840.4 -840.4,-840.4 -464.14,0 -840.4,376.3 -840.4,840.4 z" />
      <path
         id="path897"
         style="fill:none;stroke:#2c5aa0;stroke-width:275.602;stroke-linecap:round;stroke-linejoin:round;stroke-miterlimit:10;stroke-dasharray:none;stroke-opacity:1"
         d="m 5441.929,8858.9333 v 303.4 c 0,515.8 418.07,933.8007 933.78,933.8007 h 700.34 c 515.71,0 933.78,-418.0007 933.78,-933.8007 v -303.4" />
      <path
         id="path899"
         style="fill:none;stroke:#2c5aa0;stroke-width:275.602;stroke-linecap:round;stroke-linejoin:round;stroke-miterlimit:10;stroke-dasharray:none;stroke-opacity:1"
         d="M 9052.549,12255.334 H 12663.12" />
      <path
         id="path901"
         style="fill:none;stroke:#2c5aa0;stroke-width:275.602;stroke-linecap:round;stroke-linejoin:round;stroke-miterlimit:10;stroke-dasharray:none;stroke-opacity:1"
         d="m 11488.22,10761.234 h 1174.9" />
      <path
         id="path903"
         style="fill:none;stroke:#2c5aa0;stroke-width:275.602;stroke-linecap:round;stroke-linejoin:round;stroke-miterlimit:10;stroke-dasharray:none;stroke-opacity:1"
         d="M 9052.549,10761.234 H 10414.22" />
      <path
         id="path905"
         style="fill:none;stroke:#2c5aa0;stroke-width:275.602;stroke-linecap:round;stroke-linejoin:round;stroke-miterlimit:10;stroke-dasharray:none;stroke-opacity:1"
         d="M 9052.549,9267.0333 H 12663.12" />
      <path
         id="path907"
         style="fill:none;stroke:#2c5aa0;stroke-width:275.602;stroke-linecap:round;stroke-linejoin:round;stroke-miterlimit:10;stroke-dasharray:none;stroke-opacity:1"
         d="M 9052.549,7772.8333 H 12663.12" />
      <path
         id="path909"
         style="fill:none;stroke:#2c5aa0;stroke-width:275.602;stroke-linecap:round;stroke-linejoin:round;stroke-miterlimit:10;stroke-dasharray:none;stroke-opacity:1"
         d="m 5441.929,7772.8333 h 2567.87" />
      <path
         id="path911"
         style="fill:none;stroke:#2c5aa0;stroke-width:275.602;stroke-linecap:round;stroke-linejoin:round;stroke-miterlimit:10;stroke-dasharray:none;stroke-opacity:1"
         d="m 13948.92,10090.034 c 0,1195.9 969.4,2165.3 2165.3,2165.3 1195.9,0 2165.4,-969.4 2165.4,-2165.3 0,-1195.9007 -969.5,-2165.4007 -2165.4,-2165.4007 -1195.9,0 -2165.3,969.5 -2165.3,2165.4007 z" />
      <path
         id="path913"
         style="fill:none;stroke:#2c5aa0;stroke-width:275.602;stroke-linecap:round;stroke-linejoin:round;stroke-miterlimit:10;stroke-dasharray:none;stroke-opacity:1"
         d="m 17212.22,10751.934 -1323.9,-1323.9007 -662,662.0007" />
    </g>
  </g>
</svg>
